<svg width="24" height="25" viewBox="0 0 24 25" fill="none" xmlns="http://www.w3.org/2000/svg">
<g clip-path="url(#clip0_275_4122)">
<path d="M19.4012 4.61707H4.58282V18.0852H19.4012V4.61707Z" fill="white"/>
<path fill-rule="evenodd" clip-rule="evenodd" d="M23.9921 12.5001C23.9921 19.1188 18.6231 24.4842 12 24.4842C5.37704 24.4842 0.00802994 19.1188 0.00802994 12.5001C0.00802994 5.88153 5.37704 0.516098 12 0.516098C18.6231 0.516098 23.9921 5.88153 23.9921 12.5001ZM8.60185 17.2692H6.27454C5.7855 17.2692 5.54393 17.2692 5.39664 17.175C5.23755 17.0719 5.14034 16.9012 5.12856 16.7127C5.11971 16.5391 5.24051 16.3271 5.48207 15.9031L11.2285 5.78102C11.473 5.35119 11.5967 5.13627 11.7529 5.05679C11.9208 4.97142 12.1211 4.97142 12.2891 5.05679C12.4452 5.13627 12.5689 5.35119 12.8134 5.78102L13.9948 7.84183L14.0008 7.85234C14.2649 8.31346 14.3988 8.5473 14.4573 8.79273C14.5221 9.06064 14.5221 9.34326 14.4573 9.61117C14.3984 9.85846 14.2658 10.094 13.9977 10.5621L10.9793 15.8943L10.9714 15.908C10.7056 16.3729 10.5709 16.6085 10.3842 16.7863C10.1809 16.9807 9.93638 17.1219 9.66829 17.2015C9.42377 17.2692 9.14981 17.2692 8.60185 17.2692ZM14.4791 17.2692H17.8139C18.3058 17.2692 18.5533 17.2692 18.7007 17.1722C18.8598 17.0691 18.9599 16.8953 18.9688 16.707C18.9773 16.539 18.8591 16.3352 18.6276 15.9359C18.6196 15.9223 18.6116 15.9085 18.6035 15.8944L16.9331 13.0387L16.9141 13.0065C16.6793 12.6099 16.5608 12.4096 16.4087 12.3321C16.2408 12.2468 16.0433 12.2468 15.8755 12.3321C15.7223 12.4116 15.5986 12.6207 15.354 13.0416L13.6896 15.8973L13.6839 15.9072C13.4402 16.3275 13.3184 16.5375 13.3272 16.7099C13.339 16.8983 13.4362 17.0719 13.5953 17.175C13.7397 17.2692 13.9871 17.2692 14.4791 17.2692Z" fill="#E84142"/>
</g>
<defs>
<clipPath id="clip0_275_4122">
<rect width="24" height="24" fill="white" transform="translate(0 0.5)"/>
</clipPath>
</defs>
</svg>
