<svg width="24" height="24" viewBox="0 0 24 24" fill="none" xmlns="http://www.w3.org/2000/svg">
<path d="M23.6383 14.9029C22.0356 21.3315 15.5244 25.2438 9.09503 23.6407C2.66833 22.0381 -1.24401 15.5265 0.359382 9.09837C1.96137 2.66903 8.47253 -1.24361 14.8999 0.359081C21.3289 1.96177 25.241 8.47405 23.6381 14.903L23.6382 14.9029H23.6383Z" fill="#627EEA"/>
<path d="M11.72 4.8V10.1482L16.2394 12.1681L11.72 4.8Z" fill="white" fill-opacity="0.602"/>
<path d="M11.72 4.8L7.2 12.1681L11.72 10.1482V4.8Z" fill="white"/>
<path d="M11.72 15.6338V19.2678L16.2424 13.0098L11.72 15.6338Z" fill="white" fill-opacity="0.602"/>
<path d="M11.72 19.2678V15.6332L7.2 13.0098L11.72 19.2678Z" fill="white"/>
<path d="M11.72 14.7927L16.2394 12.1681L11.72 10.1494V14.7927Z" fill="white" fill-opacity="0.2"/>
<path d="M7.2 12.1681L11.72 14.7927V10.1494L7.2 12.1681Z" fill="white" fill-opacity="0.602"/>
</svg>
