<svg width="24" height="24" viewBox="0 0 24 24" fill="none" xmlns="http://www.w3.org/2000/svg">
<rect width="24" height="24" rx="12" fill="url(#paint0_linear_275_4149)"/>
<path fill-rule="evenodd" clip-rule="evenodd" d="M6.95072 6.35662V10.035H5.38158V11.3428H6.95072V12.7011H5.38158V14.0238H6.95072L6.95072 17.6434H11.5742C12.4211 17.6105 14.315 17.3202 15.2462 16.5794C16.1351 15.8721 16.9167 14.5359 17.1832 14.033H18.6184V12.7326H17.4939V11.3598H18.616V10.0021H17.2078C16.8863 9.31816 16.2652 8.20011 15.1598 7.36763C14.1122 6.57866 12.6921 6.35662 12.0138 6.35662H6.95072ZM8.24412 7.54982V10.0058H15.7285C15.5909 9.63882 15.1886 8.90485 14.2253 8.28027C13.262 7.65568 12.161 7.54982 11.6952 7.52865L8.24412 7.54982ZM16.1452 11.3131H8.24412V12.7121H16.1452C16.1452 12.7121 16.1995 12.3357 16.1995 12.0073C16.1995 11.6789 16.1452 11.3131 16.1452 11.3131ZM8.24412 14.0346V16.4906L11.6952 16.5118C12.161 16.4906 13.262 16.3847 14.2253 15.7602C15.1886 15.1356 15.5909 14.4016 15.7285 14.0346H8.24412Z" fill="white"/>
<defs>
<linearGradient id="paint0_linear_275_4149" x1="12" y1="0" x2="12" y2="24" gradientUnits="userSpaceOnUse">
<stop stop-color="#F9AB12"/>
<stop offset="1" stop-color="#FBC855"/>
</linearGradient>
</defs>
</svg>
