<svg width="24" height="24" viewBox="0 0 24 24" fill="none" xmlns="http://www.w3.org/2000/svg">
<rect width="24" height="24" rx="12" fill="#0B0E12"/>
<path d="M9.20454 10.8509L12.0014 8.0552L14.7993 10.8532L16.4258 9.22557L12.0014 4.8L7.57694 9.22444L9.20454 10.8509Z" fill="#F3BA2F"/>
<path d="M4.8 12.0005L6.427 10.3735L8.05401 12.0005L6.427 13.6275L4.8 12.0005Z" fill="#F3BA2F"/>
<path d="M9.20454 13.1496L12.0014 15.9464L14.7993 13.1484L16.427 14.7737L16.4258 14.7749L12.0014 19.2005L7.57694 14.7772L7.57467 14.7749L9.20454 13.1496Z" fill="#F3BA2F"/>
<path d="M15.946 12.0009L17.573 10.3739L19.2 12.0009L17.573 13.6279L15.946 12.0009Z" fill="#F3BA2F"/>
<path d="M13.6517 11.9997L12.0014 10.3482L10.781 11.5686L10.6399 11.7085L10.351 11.9974L10.3488 11.9997L10.351 12.0031L12.0014 13.6523L13.6517 12.0008L13.6529 11.9997H13.6517Z" fill="#F3BA2F"/>
</svg>
