<svg width="24" height="25" viewBox="0 0 24 25" fill="none" xmlns="http://www.w3.org/2000/svg">
<circle cx="12" cy="12.5" r="11.75" fill="white" stroke="#DEE2E8" stroke-width="0.5"/>
<path fill-rule="evenodd" clip-rule="evenodd" d="M13.0956 8.25124C13.9106 8.25124 14.5712 7.59058 14.5712 6.77562C14.5712 5.96066 13.9106 5.3 13.0956 5.3C12.2806 5.3 11.62 5.96066 11.62 6.77562C11.62 7.59058 12.2806 8.25124 13.0956 8.25124ZM19.7613 12.5C19.7613 14.158 18.4172 15.5021 16.7592 15.5021C15.1012 15.5021 13.7571 14.158 13.7571 12.5C13.7571 10.842 15.1012 9.49788 16.7592 9.49788C18.4172 9.49788 19.7613 10.842 19.7613 12.5ZM14.5712 18.2244C14.5712 19.0393 13.9106 19.7 13.0956 19.7C12.2806 19.7 11.62 19.0393 11.62 18.2244C11.62 17.4094 12.2806 16.7488 13.0956 16.7488C13.9106 16.7488 14.5712 17.4094 14.5712 18.2244ZM5.53942 8.35301C5.10691 9.49788 5.71751 10.7954 6.86239 11.2279C7.62564 11.5078 8.43977 11.3551 9.02493 10.8717C9.55921 10.4901 10.2461 10.3629 10.9076 10.6173C11.3401 10.77 11.6709 11.0498 11.8998 11.406L11.9253 11.4569C12.0271 11.6095 12.1797 11.7622 12.3832 11.8131C12.8412 11.9912 13.3755 11.7368 13.5281 11.2788C13.7062 10.8209 13.4518 10.2866 12.9938 10.1339C12.7903 10.0576 12.5868 10.0576 12.3832 10.1339C11.9762 10.2611 11.5182 10.2611 11.0857 10.1085C10.4497 9.87951 10.0172 9.37067 9.83907 8.78552L9.81362 8.73463C9.81362 8.70919 9.81362 8.68375 9.78818 8.68375V8.63287C9.61009 7.9205 9.1267 7.3099 8.38889 7.05548C7.24401 6.59753 5.94649 7.18269 5.53942 8.35301ZM6.86239 13.7721C5.71751 14.2046 5.10691 15.5021 5.53942 16.647C5.97193 17.8173 7.24401 18.4025 8.38889 17.9445C9.1267 17.6901 9.61009 17.0795 9.78818 16.3671V16.3163C9.81362 16.3163 9.81362 16.2908 9.81362 16.2654L9.83907 16.2145C10.0172 15.6293 10.4497 15.1205 11.0857 14.8915C11.5182 14.7389 11.9762 14.7389 12.3832 14.8661C12.5868 14.9424 12.7903 14.9424 12.9938 14.8661C13.4518 14.7134 13.7062 14.1792 13.5281 13.7212C13.3755 13.2633 12.8412 13.0088 12.3832 13.1869C12.1797 13.2378 12.0271 13.3905 11.9253 13.5431L11.8998 13.594C11.6709 13.9502 11.3401 14.23 10.9076 14.3827C10.2461 14.6371 9.55921 14.5099 9.02493 14.1283C8.43977 13.6449 7.62564 13.4922 6.86239 13.7721Z" fill="#266CD3"/>
</svg>
