<svg width="24" height="25" viewBox="0 0 24 25" fill="none" xmlns="http://www.w3.org/2000/svg">
<circle cx="12" cy="12.5" r="11.75" fill="white" stroke="#266CD3" stroke-width="0.5"/>
<path fill-rule="evenodd" clip-rule="evenodd" d="M13.0955 8.25104C13.9105 8.25104 14.5711 7.59039 14.5711 6.77542C14.5711 5.96046 13.9105 5.2998 13.0955 5.2998C12.2805 5.2998 11.6199 5.96046 11.6199 6.77542C11.6199 7.59039 12.2805 8.25104 13.0955 8.25104ZM19.7612 12.4998C19.7612 14.1578 18.4171 15.5019 16.7591 15.5019C15.1011 15.5019 13.757 14.1578 13.757 12.4998C13.757 10.8418 15.1011 9.49768 16.7591 9.49768C18.4171 9.49768 19.7612 10.8418 19.7612 12.4998ZM14.5711 18.2242C14.5711 19.0391 13.9105 19.6998 13.0955 19.6998C12.2805 19.6998 11.6199 19.0391 11.6199 18.2242C11.6199 17.4092 12.2805 16.7486 13.0955 16.7486C13.9105 16.7486 14.5711 17.4092 14.5711 18.2242ZM5.53932 8.35281C5.10681 9.49768 5.71741 10.7952 6.86229 11.2277C7.62554 11.5076 8.43967 11.3549 9.02483 10.8715C9.55911 10.4899 10.246 10.3627 10.9075 10.6171C11.34 10.7698 11.6708 11.0496 11.8997 11.4058L11.9252 11.4567C12.027 11.6093 12.1796 11.762 12.3831 11.8129C12.8411 11.991 13.3754 11.7366 13.528 11.2786C13.7061 10.8207 13.4517 10.2864 12.9937 10.1337C12.7902 10.0574 12.5867 10.0574 12.3831 10.1337C11.9761 10.2609 11.5181 10.2609 11.0856 10.1083C10.4496 9.87931 10.0171 9.37048 9.83897 8.78532L9.81352 8.73443C9.81352 8.70899 9.81353 8.68355 9.78808 8.68355V8.63267C9.60999 7.9203 9.1266 7.3097 8.38879 7.05528C7.24391 6.59733 5.94639 7.18249 5.53932 8.35281ZM6.86229 13.7719C5.71741 14.2044 5.10681 15.5019 5.53932 16.6468C5.97183 17.8171 7.24391 18.4023 8.38879 17.9443C9.1266 17.6899 9.60999 17.0793 9.78808 16.3669V16.3161C9.81353 16.3161 9.81352 16.2906 9.81352 16.2652L9.83897 16.2143C10.0171 15.6291 10.4496 15.1203 11.0856 14.8913C11.5181 14.7387 11.9761 14.7387 12.3831 14.8659C12.5867 14.9422 12.7902 14.9422 12.9937 14.8659C13.4517 14.7132 13.7061 14.179 13.528 13.721C13.3754 13.2631 12.8411 13.0086 12.3831 13.1867C12.1796 13.2376 12.027 13.3903 11.9252 13.5429L11.8997 13.5938C11.6708 13.95 11.34 14.2298 10.9075 14.3825C10.246 14.6369 9.55911 14.5097 9.02483 14.1281C8.43967 13.6447 7.62554 13.492 6.86229 13.7719Z" fill="#266CD3"/>
</svg>
