<svg width="24" height="25" viewBox="0 0 24 25" fill="none" xmlns="http://www.w3.org/2000/svg">
<path d="M23.6383 15.4029C22.0356 21.8315 15.5244 25.7438 9.09503 24.1407C2.66833 22.5381 -1.24401 16.0265 0.359382 9.59837C1.96137 3.16903 8.47253 -0.743606 14.8999 0.859081C21.3289 2.46177 25.241 8.97405 23.6381 15.403L23.6382 15.4029H23.6383Z" fill="#1BA27A"/>
<path fill-rule="evenodd" clip-rule="evenodd" d="M6.26916 6.55112H17.632V9.29432H13.3222V11.1083C16.6825 11.2498 19.2252 11.911 19.2252 12.7056C19.2252 13.5001 16.6824 14.1614 13.322 14.3028V20.0886H10.5791V14.3005C7.2444 14.1546 4.72788 13.496 4.72788 12.7056C4.72788 11.9152 7.24447 11.2566 10.579 11.1106V9.29432H6.26916V6.55112ZM10.579 11.2647C7.68555 11.3894 5.52096 11.8931 5.52096 12.4954C5.52096 13.1916 8.4114 13.7558 11.9766 13.7558C15.5418 13.7558 18.4321 13.1916 18.4321 12.4954C18.4321 11.8895 16.2415 11.3834 13.3222 11.2625V13.3263H10.579V11.2647Z" fill="white"/>
</svg>
