<svg width="24" height="25" viewBox="0 0 24 25" fill="none" xmlns="http://www.w3.org/2000/svg">
<path d="M23.6383 15.4029C22.0356 21.8315 15.5244 25.7438 9.09503 24.1407C2.66833 22.5381 -1.24401 16.0265 0.359382 9.59837C1.96137 3.16903 8.47253 -0.743606 14.8999 0.859081C21.3289 2.46177 25.241 8.97405 23.6381 15.403L23.6382 15.4029H23.6383Z" fill="#F7931A"/>
<path fill-rule="evenodd" clip-rule="evenodd" d="M17.2901 10.7903C17.529 9.19335 16.3132 8.33494 14.6507 7.76229L15.19 5.5991L13.8732 5.27098L13.3482 7.37722C13.002 7.29088 12.6465 7.20952 12.2931 7.12887L12.822 5.00873L11.506 4.68062L10.9664 6.84311C10.6799 6.77788 10.3985 6.71342 10.1255 6.6455L10.1271 6.6387L8.31117 6.18523L7.96089 7.59166C7.96089 7.59166 8.93784 7.81561 8.91726 7.82939C9.45049 7.96248 9.54692 8.31546 9.5309 8.59525L8.91655 11.0596C8.95327 11.069 9.0009 11.0824 9.05345 11.1036L9.0152 11.094L9.01507 11.094C8.98262 11.0859 8.94889 11.0774 8.91426 11.0691L8.05315 14.5214C7.98799 14.6834 7.82258 14.9265 7.44977 14.8342C7.46297 14.8533 6.4927 14.5954 6.4927 14.5954L5.83893 16.1027L7.55253 16.5298C7.74016 16.5769 7.92556 16.6252 8.10909 16.6731L8.10913 16.6731L8.10915 16.6731C8.23744 16.7065 8.3648 16.7397 8.49136 16.7721L7.94646 18.9601L9.26174 19.2882L9.80136 17.1234C10.1607 17.221 10.5094 17.311 10.8508 17.3958L10.3129 19.5503L11.6298 19.8785L12.1747 17.6946C14.4201 18.1195 16.1085 17.9482 16.8191 15.9172C17.3918 14.282 16.7906 13.3388 15.6093 12.7238C16.4697 12.5254 17.1178 11.9595 17.2906 10.7905L17.2902 10.7902L17.2901 10.7903ZM14.2815 15.0091C13.9082 16.5093 11.5599 15.8891 10.4855 15.6053C10.3888 15.5798 10.3025 15.557 10.2288 15.5387L10.9519 12.64C11.0417 12.6624 11.1514 12.687 11.2757 12.7149C12.3871 12.9643 14.6641 13.4753 14.2816 15.0091H14.2815ZM11.4986 11.3696C12.3944 11.6086 14.3485 12.1301 14.6888 10.7666H14.6889C15.0364 9.37205 13.1374 8.95161 12.2099 8.74627C12.1055 8.72317 12.0135 8.70279 11.9383 8.68405L11.2827 11.313C11.3446 11.3285 11.4173 11.3478 11.4986 11.3696Z" fill="white"/>
</svg>
