<svg width="24" height="25" viewBox="0 0 24 25" fill="none" xmlns="http://www.w3.org/2000/svg">
<circle cx="12" cy="12.5" r="11.5" fill="#F7F8F9" stroke="#C5CBD5"/>
<path d="M14.6286 14.2714H16C15.9286 14.8864 15.7405 15.4367 15.4357 15.9225C15.131 16.4082 14.7 16.7937 14.1429 17.0789C13.5857 17.3596 12.8905 17.5 12.0571 17.5C11.4476 17.5 10.8929 17.393 10.3929 17.1791C9.89762 16.9652 9.47143 16.6622 9.11429 16.2701C8.75714 15.8734 8.48095 15.3988 8.28571 14.8463C8.09524 14.2892 8 13.6698 8 12.988V12.0187C8 11.3369 8.09524 10.7197 8.28571 10.1671C8.48095 9.61007 8.75952 9.13324 9.12143 8.73663C9.4881 8.34002 9.92857 8.03476 10.4429 7.82086C10.9571 7.60695 11.5357 7.5 12.1786 7.5C12.9643 7.5 13.6286 7.63815 14.1714 7.91444C14.7143 8.19073 15.1357 8.57398 15.4357 9.06417C15.7405 9.54991 15.9286 10.1136 16 10.7553H14.6286C14.5619 10.3008 14.4381 9.91087 14.2571 9.58556C14.0762 9.25579 13.819 9.00178 13.4857 8.82353C13.1524 8.64528 12.7167 8.55615 12.1786 8.55615C11.7167 8.55615 11.3095 8.63859 10.9571 8.80348C10.6095 8.96836 10.3167 9.20232 10.0786 9.50535C9.84524 9.80838 9.66905 10.1716 9.55 10.5949C9.43095 11.0183 9.37143 11.4884 9.37143 12.0053V12.988C9.37143 13.4648 9.42381 13.9127 9.52857 14.3316C9.6381 14.7504 9.80238 15.1181 10.0214 15.4345C10.2405 15.7509 10.519 16.0004 10.8571 16.1832C11.1952 16.3614 11.5952 16.4505 12.0571 16.4505C12.6429 16.4505 13.1095 16.3636 13.4571 16.1898C13.8048 16.016 14.0667 15.7665 14.2429 15.4412C14.4238 15.1159 14.5524 14.7259 14.6286 14.2714Z" fill="#25272A"/>
</svg>
