<svg width="24" height="25" viewBox="0 0 24 25" fill="none" xmlns="http://www.w3.org/2000/svg">
<rect x="0.25" y="0.75" width="23.5" height="23.5" rx="11.75" fill="white" stroke="#C5CBD5" stroke-width="0.5"/>
<path d="M13.3636 9.72921C13.3636 7.66313 12.357 5.88378 11.5904 5.30626C11.5904 5.30626 11.5314 5.27372 11.5375 5.35709C11.4745 9.34894 9.43482 10.4308 8.31433 11.8868C5.72767 15.2503 8.13131 18.9371 10.5838 19.6183C11.9503 20.0006 10.2665 18.9432 10.0489 16.7124C9.78255 14.02 13.3636 11.962 13.3636 9.72921Z" fill="#1B2143"/>
<path d="M14.539 11.0896C14.5227 11.0795 14.5004 11.0713 14.4861 11.0978C14.4434 11.6001 13.931 12.6738 13.2802 13.6621C11.0739 17.0093 12.3306 18.6239 13.0383 19.4922C13.449 19.9945 13.0383 19.4922 14.0632 18.9778C15.3301 18.2091 16.1516 16.8791 16.2736 15.4028C16.4749 13.0235 15.0474 11.5248 14.539 11.0896V11.0896Z" fill="#2CA6E0"/>
</svg>
